<svg xmlns="http://www.w3.org/2000/svg" viewBox="0 0 512 512" role="img" aria-label="請求書作成">
  <defs>
    <linearGradient id="g" x1="0" y1="0" x2="1" y2="1">
      <stop offset="0" stop-color="#1a6b54"/>
      <stop offset="1" stop-color="#0f4a39"/>
    </linearGradient>
  </defs>
  <rect width="512" height="512" fill="url(#g)"/>
  <path d="M136 92h180l60 60v268a20 20 0 0 1-20 20H136a20 20 0 0 1-20-20V112a20 20 0 0 1 20-20z" fill="#ffffff"/>
  <path d="M316 92l60 60h-60z" fill="#cbd5e1"/>
  <rect x="156" y="196" width="140" height="18" rx="9" fill="#93a4bd"/>
  <rect x="156" y="238" width="200" height="14" rx="7" fill="#cbd5e1"/>
  <rect x="156" y="272" width="200" height="14" rx="7" fill="#cbd5e1"/>
  <rect x="156" y="306" width="120" height="14" rx="7" fill="#cbd5e1"/>
  <rect x="242" y="348" width="114" height="22" rx="11" fill="#1a6b54"/>
  <text x="196" y="160" font-family="Helvetica, Arial, sans-serif" font-size="46" font-weight="700" fill="#1a6b54">¥</text>
</svg>
